<svg width="1920" height="1302" viewBox="0 0 1920 1302" fill="none" xmlns="http://www.w3.org/2000/svg">
<path d="M1337.5 423L1464.5 296H1591L1687 200V107.5L1793 1.5H1971.5M707 423L643.5 359.5M643.5 359.5H518.5L409.5 468.5M643.5 359.5L432.5 148.5H409.5H333L292 107.5H62.5L-30 200" stroke="#525252" stroke-width="3" stroke-linejoin="round"/>
<path d="M-72.5 216.5L49.5 338.5H158.5L298 478M1562 535L1688.5 661.5H1763L1967.5 866M-37.5 866L76 979.5H189L322 1112.5M1562 1053.5L1643 1134.5H1802L1967.5 1300" stroke="#525252" stroke-width="3" stroke-linejoin="round"/>
</svg>
