<svg width="1733" height="1111" viewBox="0 0 1733 1111" fill="none" xmlns="http://www.w3.org/2000/svg">
<path d="M0 23C0 10.2974 10.2975 0 23 0L193.205 0C198.886 0 204.367 2.10265 208.59 5.90279L269.779 60.963C274.002 64.7631 279.483 66.8657 285.164 66.8657H440.268C445.949 66.8657 451.429 64.7631 455.652 60.9629L516.842 5.90279C521.065 2.10265 526.545 0 532.227 0H1710C1722.7 0 1733 10.2974 1733 23V1088C1733 1100.7 1722.7 1111 1710 1111H1500.79C1495.11 1111 1489.63 1108.9 1485.4 1105.1L1474.39 1095.19C1470.17 1091.39 1464.69 1089.28 1459 1089.28H1390.91C1385.23 1089.28 1379.75 1091.39 1375.53 1095.19L1364.51 1105.1C1360.29 1108.9 1354.81 1111 1349.13 1111H23C10.2974 1111 0 1100.7 0 1088V23Z" fill="url(#paint0_linear_33_400)"/>
<defs>
<linearGradient id="paint0_linear_33_400" x1="-11.371" y1="73.1518" x2="1683.96" y2="1412.93" gradientUnits="userSpaceOnUse">
<stop stop-color="#D09756"/>
<stop offset="1" stop-color="#3D1B0A"/>
</linearGradient>
</defs>
</svg>
