<svg width="1920" height="833" viewBox="0 0 1920 833" fill="none" xmlns="http://www.w3.org/2000/svg">
<path d="M727.764 664.372V663.372H727.349L727.056 663.665L727.764 664.372ZM869.92 664.372V665.372H870.335L870.628 665.078L869.92 664.372ZM948.374 585.85V584.85H947.96L947.667 585.143L948.374 585.85ZM1075.78 585.85V586.85H1076.19L1076.49 586.557L1075.78 585.85ZM645.286 746.92L644.579 746.213L645.286 746.92ZM566.832 825.441L566.125 824.734L565.832 825.027V825.441H566.832ZM1169.66 491.893V490.893H1169.24L1168.95 491.186L1169.66 491.893ZM1362.1 491.893L1362.81 491.186L1362.52 490.893H1362.1V491.893ZM1534.43 664.372L1533.73 665.078L1534.02 665.372H1534.43V664.372ZM1683.3 664.372V665.372H1683.71L1684 665.078L1683.3 664.372ZM1914.67 427.465C1914.67 430.411 1917.05 432.799 1920 432.799C1922.95 432.799 1925.33 430.411 1925.33 427.465C1925.33 424.52 1922.95 422.132 1920 422.132C1917.05 422.132 1914.67 424.52 1914.67 427.465ZM-100.333 6C-100.333 8.94552 -97.9455 11.3333 -95 11.3333C-92.0545 11.3333 -89.6667 8.94552 -89.6667 6C-89.6667 3.05448 -92.0545 0.666667 -95 0.666667C-97.9455 0.666667 -100.333 3.05448 -100.333 6ZM159.138 260.356H160.138V259.942L159.846 259.649L159.138 260.356ZM159.138 511.356H158.138V512.356H159.138V511.356ZM248.321 511.356L249.029 510.649L248.736 510.356H248.321V511.356ZM460.215 723.43L459.507 724.137L459.508 724.138L460.215 723.43ZM566.832 830.048L566.125 830.755L567.832 832.462V830.048H566.832ZM727.764 665.372H869.92V663.372H727.764V665.372ZM870.628 665.078L949.082 586.557L947.667 585.143L869.213 663.665L870.628 665.078ZM948.374 586.85H1075.78V584.85H948.374V586.85ZM727.056 663.665L644.579 746.213L645.994 747.627L728.471 665.078L727.056 663.665ZM644.579 746.213L566.125 824.734L567.539 826.148L645.994 747.627L644.579 746.213ZM1076.49 586.557L1170.36 492.6L1168.95 491.186L1075.07 585.143L1076.49 586.557ZM1169.66 492.893H1362.1V490.893H1169.66V492.893ZM1361.4 492.6L1533.73 665.078L1535.14 663.665L1362.81 491.186L1361.4 492.6ZM1534.43 665.372H1683.3V663.372H1534.43V665.372ZM1684 665.078L1920.71 428.172L1919.29 426.758L1682.59 663.665L1684 665.078ZM-95.7074 6.7068L158.431 261.062L159.846 259.649L-94.2926 5.2932L-95.7074 6.7068ZM158.138 260.356V511.356H160.138V260.356H158.138ZM159.138 512.356H248.321V510.356H159.138V512.356ZM247.614 512.062L459.507 724.137L460.922 722.724L249.029 510.649L247.614 512.062ZM565.832 825.441V830.048H567.832V825.441H565.832ZM459.508 724.138L566.125 830.755L567.539 829.341L460.922 722.723L459.508 724.138Z" fill="#525252"/>
</svg>
