<svg width="94" height="93" viewBox="0 0 94 93" fill="none" xmlns="http://www.w3.org/2000/svg">
<path d="M57.5363 39.8012C56.0791 45.567 47.0067 42.6376 44.1863 41.8471L46.7717 31.7104C49.6861 32.5474 59.0405 33.7564 57.5363 39.8012ZM42.9172 47.0549L40.0968 58.2611C43.5753 59.1445 54.3398 62.5389 55.938 56.2151C57.6303 49.6124 46.3957 47.8919 42.9172 47.0549ZM92.6033 57.7496C86.3044 82.6728 60.8267 97.8313 35.6311 91.6005C10.4355 85.3697 -4.87459 60.1675 1.41021 35.2443C7.70911 10.3211 33.1868 -4.81876 58.3824 1.39344C83.531 7.62423 98.8552 32.8264 92.6033 57.7496ZM57.3952 28.1301L59.5105 19.7603L54.3398 18.5979L52.2715 26.6421C50.9083 26.3166 49.5451 25.9911 48.1349 25.7121L50.2032 17.4819L45.0795 16.2729L42.9642 24.5962C41.836 24.3172 40.7078 24.0847 39.6737 23.8057L32.5757 22.0388L31.1655 27.4791C31.1655 27.4791 35.02 28.3625 34.926 28.409C37.0413 28.9205 37.4174 30.2225 37.3234 31.385L31.5415 54.3087C31.3065 54.9597 30.5544 55.7966 29.1912 55.5642C29.2382 55.6107 25.4307 54.6342 25.4307 54.6342L22.8923 60.4465L29.5672 62.1204C30.8364 62.4459 32.0586 62.7714 33.2808 63.0504L31.1185 71.5131L36.2892 72.8151L38.4045 64.3989C39.8147 64.7709 41.1779 65.0963 42.4941 65.4683L40.3788 73.7916L45.5495 75.0935L47.7118 66.6308C56.4081 68.2582 63.0831 67.6073 65.8094 59.749C68.1598 53.4717 65.8094 49.7518 61.1088 47.3804C64.4933 46.497 67.0316 44.4045 67.7367 39.8477C68.6769 33.6634 63.8822 30.362 57.3952 28.1301Z" fill="white"/>
</svg>
