<svg width="120" height="71" viewBox="0 0 120 71" fill="none" xmlns="http://www.w3.org/2000/svg">
<path d="M60 0C64.6413 0 69.0925 1.8056 72.3744 5.01958C75.6563 8.23357 77.5 12.5927 77.5 17.1379C77.5 21.6832 75.6563 26.0423 72.3744 29.2563C69.0925 32.4703 64.6413 34.2759 60 34.2759C55.3587 34.2759 50.9075 32.4703 47.6256 29.2563C44.3437 26.0423 42.5 21.6832 42.5 17.1379C42.5 12.5927 44.3437 8.23357 47.6256 5.01958C50.9075 1.8056 55.3587 0 60 0ZM25 12.2414C27.8 12.2414 30.4 12.9759 32.65 14.2979C31.9 21.3 34 28.2531 38.3 33.6883C35.8 38.389 30.8 41.6207 25 41.6207C21.0218 41.6207 17.2064 40.073 14.3934 37.3182C11.5804 34.5633 10 30.827 10 26.931C10 23.0351 11.5804 19.2987 14.3934 16.5439C17.2064 13.789 21.0218 12.2414 25 12.2414ZM95 12.2414C98.9782 12.2414 102.794 13.789 105.607 16.5439C108.42 19.2987 110 23.0351 110 26.931C110 30.827 108.42 34.5633 105.607 37.3182C102.794 40.073 98.9782 41.6207 95 41.6207C89.2 41.6207 84.2 38.389 81.7 33.6883C86 28.2531 88.1 21.3 87.35 14.2979C89.6 12.9759 92.2 12.2414 95 12.2414ZM27.5 62.431C27.5 52.2952 42.05 44.069 60 44.069C77.95 44.069 92.5 52.2952 92.5 62.431V71H27.5V62.431ZM0 71V63.6552C0 56.849 9.45 51.12 22.25 49.4552C19.3 52.7848 17.5 57.3876 17.5 62.431V71H0ZM120 71H102.5V62.431C102.5 57.3876 100.7 52.7848 97.75 49.4552C110.55 51.12 120 56.849 120 63.6552V71Z" fill="white"/>
</svg>
