<svg width="95" height="89" viewBox="0 0 95 89" fill="none" xmlns="http://www.w3.org/2000/svg">
<path d="M79.42 58.0264C81.0825 53.8607 81.985 49.4009 81.985 44.5C81.985 40.9714 81.4625 37.5898 80.56 34.4532C77.4725 35.1883 74.2425 35.5804 70.87 35.5804C56.335 35.5804 43.4625 28.1801 35.625 16.761C31.3975 27.3469 23.3225 35.9725 13.1575 40.6773C12.9675 41.9025 12.9675 43.2258 12.9675 44.5C12.9675 53.9495 16.6057 63.012 23.0818 69.6938C29.5579 76.3756 38.3414 80.1294 47.5 80.1294C52.4875 80.1294 57.285 79.0022 61.6075 76.9928C64.315 82.3348 65.55 84.9813 65.455 84.9813C57.665 87.6768 51.6325 89 47.5 89C36.005 89 25.0325 84.3442 16.9575 75.9637C12.0175 70.8667 8.36 64.6426 6.3175 57.8794H0V35.5804H5.1775C9.1675 15.2908 26.6 0 47.5 0C58.9 0 69.8725 4.65584 77.995 13.0363C84.0275 19.2115 88.065 27.1019 89.7275 35.5804H95V57.5854V57.6834V57.8794H94.715L77.805 73.9053L52.63 70.9648V62.7803H75.5725L79.42 58.0264ZM34.5325 43.3728C35.9575 43.3728 37.335 43.9609 38.3325 45.0391C39.33 46.0683 39.9 47.4895 39.9 48.9598C39.9 50.4301 39.33 51.8513 38.3325 52.8805C37.335 53.9097 35.9575 54.4978 34.5325 54.4978C31.54 54.4978 29.1175 52.0474 29.1175 48.9598C29.1175 45.8722 31.54 43.3728 34.5325 43.3728ZM60.42 43.3728C63.4125 43.3728 65.7875 45.8722 65.7875 48.9598C65.7875 52.0474 63.4125 54.4978 60.42 54.4978C57.4275 54.4978 55.005 52.0474 55.005 48.9598C55.005 47.478 55.5755 46.057 56.591 45.0092C57.6065 43.9614 58.9839 43.3728 60.42 43.3728Z" fill="white"/>
</svg>
