<svg width="73" height="72" viewBox="0 0 73 72" fill="none" xmlns="http://www.w3.org/2000/svg">
<path d="M54.75 36V3.6C54.75 2.64522 54.3655 1.72955 53.6809 1.05442C52.9964 0.379284 52.068 0 51.1 0H3.65C2.68196 0 1.75357 0.379284 1.06906 1.05442C0.384552 1.72955 0 2.64522 0 3.6V54L14.6 39.6H51.1C52.068 39.6 52.9964 39.2207 53.6809 38.5456C54.3655 37.8705 54.75 36.9548 54.75 36ZM69.35 14.4H62.05V46.8H14.6V54C14.6 54.9548 14.9846 55.8705 15.6691 56.5456C16.3536 57.2207 17.282 57.6 18.25 57.6H58.4L73 72V18C73 17.0452 72.6154 16.1295 71.9309 15.4544C71.2464 14.7793 70.318 14.4 69.35 14.4Z" fill="white"/>
</svg>
