<svg width="1920" height="519" viewBox="0 0 1920 519" fill="none" xmlns="http://www.w3.org/2000/svg">
<path d="M1332.5 295H587L543 251M1332.5 295L1376.5 251V160.5M1332.5 295L1376.5 339H1545L1594 388V517.5H1762.5L1815.5 464.5H1990M1376.5 160.5L1451.5 85.5H1656L1740.5 1H1948.5M1376.5 160.5L1451.5 235.5H1545L1656 346.5H1740.5L1873 214H1964M543 251H463M543 251L463 331V403.5L388 478.5H209.5L148.5 417.5H-10.5M463 251V160.5L388 85.5H320.5L236 1H-10.5M463 251H411L367 295H320.5L261 235.5H209.5H77.5L-10.5 147.5" stroke="#525252" stroke-width="2"/>
</svg>
