<svg width="51" height="42" viewBox="0 0 51 42" fill="none" xmlns="http://www.w3.org/2000/svg">
<path d="M49.4844 23.3828C48.4844 21.6875 46.336 21.0703 44.5938 21.9766L35.2891 26.8047C34.6563 26.2266 33.8281 25.8828 32.9453 25.8828H32.625C32.6016 25.8828 32.5781 25.8828 32.5469 25.8828C31.0078 25.9844 28.9063 25.6875 27.4141 25.4141C26.1641 25.1875 24.9531 24.5078 23.9141 23.4531C22.836 22.3438 21.4453 21.5547 19.7578 21.1172C17.3672 20.4922 14.7188 20.7188 12.2891 21.75L7.19533 23.8906L7.03908 23.9531L6.95314 23.7188C6.73439 23.1406 6.07814 22.8516 5.50783 23.0703L0.718764 24.9062C0.242202 25.0859 -0.0468607 25.5703 0.00782677 26.0703L1.60158 40.7891C1.64064 41.1328 1.83595 41.4453 2.13283 41.625C2.31251 41.7344 2.51564 41.7891 2.71876 41.7891C2.85158 41.7891 2.9922 41.7656 3.1172 41.7188L11.4375 38.5391C12.0156 38.3203 12.3047 37.6719 12.086 37.0938L11.875 36.5391L13.1094 36.1406C13.1406 36.1328 13.1719 36.1172 13.1953 36.1094C15.4063 35.1719 18.8828 36.5938 19.8985 37.0625C20.3047 37.2422 20.7031 37.4844 21.1172 37.7344C23.0313 38.8984 24.961 39.2969 26.7031 39.2969C30.4141 39.2969 33.2969 37.5 33.4531 37.3984L48.2188 28.4453C49.3203 27.7812 50.0078 26.5703 50.0078 25.2812C50 24.6016 49.8203 23.9531 49.4844 23.3828ZM3.66408 39.1016L2.32033 26.6797L5.25783 25.5547L5.35158 25.8047C5.35158 25.8125 5.35939 25.8203 5.35939 25.8281C5.35939 25.8359 5.3672 25.8359 5.3672 25.8438L9.32033 36.1641V36.1719C9.32033 36.1797 9.32814 36.1875 9.32814 36.1953L9.57033 36.8281L3.66408 39.1016ZM47.0547 26.5078L32.2656 35.4766C32.0547 35.6094 27.0469 38.7031 22.2735 35.8125C21.8203 35.5312 21.3281 35.2344 20.7969 35.0078C18.8594 34.1328 15.2031 32.8438 12.3516 34.0156L11.0547 34.4375L7.83595 26.0234L13.1563 23.8047C15.1328 22.9688 17.2813 22.7812 19.1875 23.2812C20.4688 23.6172 21.5156 24.1953 22.3047 25.0078C23.6719 26.4063 25.2969 27.3047 27.0078 27.6094C28.6094 27.8984 30.8828 28.2266 32.6485 28.1172H32.9297C33.375 28.1172 33.7891 28.3594 34.0078 28.7578C34.1094 28.9375 34.1641 29.1406 34.1641 29.3516C34.1641 29.6797 34.0313 30 33.8047 30.2266C33.5703 30.4609 33.2656 30.5859 32.9297 30.5859H28.0781C27.6563 30.5547 23.961 30.2422 21.2188 29.4766C20.625 29.3125 20.0078 29.6562 19.836 30.2578C19.6719 30.8516 20.0156 31.4688 20.6172 31.6406C23.7344 32.5078 27.7813 32.8125 27.9531 32.8281C27.9844 32.8281 28.0078 32.8281 28.0313 32.8281H32.9219C33.8516 32.8281 34.7266 32.4688 35.375 31.8125C36.0313 31.1562 36.3906 30.2891 36.3906 29.3594C36.3906 29.1641 36.3672 28.9688 36.336 28.7734L45.6016 23.9688C46.2891 23.6094 47.1406 23.8516 47.5313 24.5234C47.6641 24.7578 47.7422 25.0156 47.7422 25.2656C47.7578 25.7734 47.5 26.2422 47.0547 26.5078ZM28.5938 20.6406C34.2266 20.6406 38.8125 16.0625 38.8125 10.4297C38.8125 4.79688 34.2344 0.210938 28.6016 0.210938C22.9766 0.210938 18.3906 4.78906 18.3906 10.4219C18.3828 16.0547 22.961 20.6406 28.5938 20.6406ZM28.5938 2.45313C33 2.45313 36.5703 6.03125 36.5703 10.4297C36.5703 14.8281 32.9922 18.3984 28.5938 18.3984C24.1953 18.3984 20.625 14.8203 20.625 10.4297C20.625 6.02344 24.1953 2.45313 28.5938 2.45313Z" fill="white"/>
</svg>
