<svg width="30" height="29" viewBox="0 0 30 29" fill="none" xmlns="http://www.w3.org/2000/svg">
<path fill-rule="evenodd" clip-rule="evenodd" d="M24.2866 3.79284H21.3407C21.0615 1.65615 19.1931 0 16.9375 0H13.0625C10.8069 0 8.93847 1.65468 8.65933 3.79137L5.72836 3.79284C2.56928 3.79284 0 6.30278 0 9.38731V14.4821C0 14.8525 0.189094 15.1978 0.505753 15.4021C3.5958 17.3991 7.25313 18.7291 11.0815 19.2507C11.6503 19.333 12.1726 18.9848 12.3227 18.4499C12.6573 17.2581 13.7304 16.4572 14.9925 16.4572C16.2411 16.4572 17.3247 17.2757 17.6278 18.444C17.7554 18.9377 18.2101 19.2757 18.7174 19.2757C18.7699 19.2757 18.8209 19.2728 18.8734 19.2654C22.7274 18.7438 26.4012 17.4065 29.4957 15.4021C29.8109 15.1963 30 14.8525 30 14.4821V9.38731C30 6.30278 27.4367 3.79284 24.2866 3.79284ZM27.7489 13.8796C25.2831 15.38 22.4407 16.4307 19.4482 16.9465C18.6258 15.3198 16.915 14.2529 14.9925 14.2529C13.085 14.2529 11.3667 15.3168 10.5218 16.9333C7.54727 16.4204 4.71386 15.3756 2.25113 13.8796V9.38731C2.25113 7.51808 3.81041 5.99712 5.72987 5.99712L9.74888 5.99418C10.049 5.99418 10.3342 5.87809 10.5458 5.67089C10.7559 5.46222 10.8744 5.18301 10.8744 4.89057L10.8729 4.34685C10.8729 3.16535 11.8559 2.20428 13.0625 2.20428H16.9375C17.9475 2.20428 18.8014 2.87879 19.052 3.79284H15C14.3787 3.79284 13.8744 4.2866 13.8744 4.89498C13.8744 5.50336 14.3787 5.99712 15 5.99712H24.2866C26.1956 5.99712 27.7489 7.51808 27.7489 9.38731V13.8796ZM16.1253 19.6672V21.5688C16.1253 22.1772 15.621 22.6709 14.9997 22.6709C14.3784 22.6709 13.8741 22.1772 13.8741 21.5688V19.6672C13.8741 19.0588 14.3784 18.5651 14.9997 18.5651C15.621 18.5651 16.1253 19.0588 16.1253 19.6672ZM28.8369 18.7001C28.2471 18.7001 27.7774 19.1498 27.7324 19.7141C27.7324 19.7141 27.5013 22.2843 27.4532 23.0955C27.3977 23.9933 27.0255 24.9706 26.5048 25.5834C25.7709 26.4504 24.9575 26.7898 23.6038 26.7928C22.7154 26.7942 17.9235 26.7957 14.3037 26.7957C13.6808 26.7957 13.1766 27.2895 13.1766 27.8979C13.1766 28.5062 13.6808 29 14.3022 29C17.7959 29 22.7694 28.9985 23.6083 28.9971C25.6103 28.9927 27.0825 28.3549 28.2381 26.9912C29.068 26.0125 29.6143 24.6061 29.6999 23.2277C29.7339 22.6608 29.8502 21.1901 29.9151 20.371C29.9416 20.035 29.9595 19.8087 29.9595 19.7993C29.9595 19.1924 29.4567 18.7001 28.8369 18.7001ZM6.3965 26.7925C6.69065 26.794 7.29995 26.794 8.09985 26.794C8.72116 26.794 9.22991 27.2877 9.22991 27.8961C9.22991 28.5045 8.71966 28.9982 8.09685 28.9982C7.28644 28.9982 6.69515 28.9982 6.3935 28.9968C4.39 28.9924 2.91776 28.3546 1.76218 26.9894C0.933767 26.0122 0.385993 24.6058 0.301951 23.2274C0.267344 22.6687 0.153572 21.2323 0.088184 20.4067C0.0600149 20.051 0.0408204 19.8087 0.0408204 19.799C0.0408204 19.1921 0.543572 18.6998 1.16338 18.6998C1.75318 18.6998 2.22141 19.1495 2.26793 19.7153C2.26793 19.7153 2.49905 22.2855 2.54857 23.0952C2.6041 23.993 2.97479 24.9703 3.49555 25.5816C4.23092 26.4516 5.04432 26.7895 6.3965 26.7925Z" fill="white"/>
</svg>
