<svg width="34" height="41" viewBox="0 0 34 41" fill="none" xmlns="http://www.w3.org/2000/svg">
<path d="M29.5878 24.7737C29.9348 24.5635 30.2646 24.3314 30.5805 24.0763C30.8954 23.8212 31.1918 23.5455 31.4687 23.2502C31.7468 22.9549 32.003 22.6424 32.2385 22.3126C32.4729 21.9817 32.6855 21.6382 32.8739 21.2785C33.0623 20.9201 33.2255 20.5501 33.3645 20.1698C33.5024 19.7883 33.6138 19.4 33.7 19.0036C33.785 18.6072 33.8436 18.2073 33.8758 17.8029C33.9068 17.3984 33.9103 16.9951 33.8873 16.5896C33.8643 16.1851 33.8138 15.7841 33.7356 15.3866C33.6575 14.989 33.553 14.5984 33.422 14.2146C33.291 13.8309 33.1347 13.4574 32.9543 13.0955C32.7728 12.7324 32.5671 12.3843 32.3385 12.0499C32.1098 11.7144 31.8594 11.3973 31.5882 11.0963C31.3159 10.7964 31.0252 10.5149 30.715 10.2541C30.4059 9.99213 30.0796 9.75314 29.7372 9.53599C29.3948 9.31883 29.0398 9.1258 28.6709 8.95805L29.6062 6.91862C29.6671 6.78534 29.7154 6.64631 29.7498 6.50384C29.7832 6.36022 29.8038 6.21544 29.8084 6.06723C29.8142 5.92016 29.8061 5.77424 29.782 5.62947C29.759 5.48355 29.7223 5.34222 29.6706 5.2032C29.6189 5.06532 29.5557 4.93433 29.4775 4.80795C29.4005 4.68271 29.3121 4.56666 29.2121 4.45866C29.1122 4.35065 29.0019 4.25299 28.8824 4.16682C28.764 4.08064 28.6365 4.00711 28.5032 3.94506C28.3688 3.88417 28.2309 3.83591 28.0873 3.80144C27.9436 3.76812 27.7989 3.74859 27.6518 3.74284C27.5047 3.7371 27.3588 3.74629 27.2129 3.76927C27.067 3.79225 26.9256 3.83017 26.7878 3.88072C26.6499 3.93243 26.5178 3.99677 26.3925 4.07375C26.2673 4.15073 26.1501 4.2392 26.0421 4.33916C25.9341 4.44027 25.8376 4.54943 25.7514 4.66892C25.6641 4.78841 25.5905 4.9148 25.5296 5.04808L24.5944 7.08637L20.5167 5.21583L21.4519 3.17755C21.514 3.04427 21.5611 2.90524 21.5955 2.76162C21.63 2.61915 21.6495 2.47322 21.6553 2.32616C21.661 2.17909 21.6518 2.03317 21.6289 1.88725C21.6047 1.74248 21.568 1.6 21.5163 1.46212C21.4657 1.32425 21.4014 1.19212 21.3244 1.06688C21.2474 0.941638 21.1578 0.825592 21.0578 0.717588C20.9579 0.609584 20.8487 0.511921 20.7292 0.425748C20.6097 0.339574 20.4833 0.264891 20.3489 0.203995C20.2156 0.143099 20.0766 0.0948423 19.933 0.0603728C19.7905 0.0270526 19.6446 0.00637089 19.4975 0.00177499C19.3504 -0.00396983 19.2045 0.00407301 19.0586 0.0282015C18.9138 0.051181 18.7714 0.0879483 18.6335 0.139652C18.4956 0.191356 18.3635 0.25455 18.2382 0.33268C18.113 0.409662 17.9969 0.498133 17.8889 0.598094C17.7809 0.698055 17.6833 0.808357 17.5971 0.927851C17.5109 1.0462 17.4362 1.17373 17.3754 1.30701L16.4401 3.3453L14.4018 2.41003C14.2674 2.34914 14.1295 2.30088 13.9859 2.26756C13.8422 2.23309 13.6975 2.21356 13.5504 2.20781C13.4033 2.20207 13.2574 2.21126 13.1115 2.23424C12.9656 2.25722 12.8243 2.29513 12.6864 2.34569C12.5485 2.39739 12.4164 2.46174 12.2911 2.53872C12.1659 2.6157 12.0487 2.70417 11.9407 2.80413C11.8327 2.90524 11.7362 3.01439 11.65 3.13389C11.5627 3.25338 11.4891 3.37977 11.4282 3.51305C11.3662 3.64748 11.3191 3.78536 11.2846 3.92898C11.2502 4.0726 11.2306 4.21737 11.2249 4.36444C11.2191 4.51151 11.2283 4.65858 11.2513 4.80335C11.2754 4.94927 11.3122 5.0906 11.3639 5.22847C11.4145 5.36635 11.4788 5.49848 11.5558 5.62372C11.6328 5.74896 11.7224 5.86615 11.8223 5.97416C11.9223 6.08216 12.0315 6.17983 12.151 6.266C12.2704 6.35217 12.3968 6.42571 12.5313 6.48775L14.5695 7.42302L5.21572 27.807L3.17744 26.8718C3.04416 26.8109 2.90513 26.7626 2.76266 26.7281C2.61904 26.6948 2.47312 26.6741 2.32605 26.6695C2.17898 26.6638 2.03306 26.673 1.88714 26.696C1.74237 26.7189 1.60104 26.7569 1.46202 26.8074C1.32414 26.8591 1.19316 26.9235 1.06677 27.0004C0.941529 27.0774 0.825482 27.1659 0.717478 27.2659C0.609475 27.3658 0.511811 27.4761 0.425638 27.5956C0.339465 27.7151 0.26593 27.8415 0.203885 27.9748C0.14299 28.1092 0.0947327 28.2471 0.0602633 28.3907C0.026943 28.5343 0.00626162 28.6791 0.00166541 28.8262C-0.0040794 28.9732 0.00511235 29.1203 0.0280919 29.2651C0.0510714 29.411 0.088988 29.5523 0.139543 29.6902C0.191247 29.8281 0.25559 29.9602 0.332571 30.0854C0.409552 30.2107 0.498024 30.3279 0.597985 30.4359C0.697946 30.5439 0.808247 30.6404 0.927741 30.7277C1.04723 30.8139 1.17362 30.8874 1.3069 30.9483L3.34519 31.8847L2.40992 33.923C2.34903 34.0563 2.30077 34.1953 2.26745 34.3378C2.23298 34.4814 2.21345 34.6262 2.2077 34.7744C2.20196 34.9215 2.21115 35.0674 2.23413 35.2133C2.25711 35.3581 2.29502 35.4994 2.34558 35.6385C2.39728 35.7763 2.46163 35.9073 2.53861 36.0337C2.61559 36.1589 2.70406 36.275 2.80402 36.383C2.90513 36.491 3.01428 36.5887 3.13378 36.6748C3.25327 36.761 3.37966 36.8345 3.51294 36.8966C3.64737 36.9575 3.7864 37.0057 3.92887 37.0402C4.07249 37.0735 4.21726 37.0942 4.36433 37.0988C4.5114 37.1045 4.65847 37.0954 4.80324 37.0724C4.94916 37.0494 5.09049 37.0115 5.22836 36.9609C5.36739 36.9092 5.49837 36.8449 5.62361 36.7679C5.75 36.6909 5.86605 36.6024 5.97405 36.5025C6.08205 36.4025 6.17972 36.2922 6.26589 36.1727C6.35206 36.0532 6.4256 35.9268 6.48764 35.7936L7.42291 33.7553L11.4995 35.6258L10.5642 37.6641C10.5033 37.7974 10.4551 37.9364 10.4206 38.08C10.3873 38.2225 10.3666 38.3684 10.362 38.5155C10.3562 38.6626 10.3643 38.8085 10.3884 38.9544C10.4114 39.0992 10.4482 39.2416 10.4999 39.3795C10.5516 39.5174 10.6148 39.6495 10.6929 39.7748C10.7699 39.9 10.8584 40.0161 10.9583 40.1241C11.0583 40.2321 11.1686 40.3297 11.2881 40.4159C11.4064 40.5021 11.534 40.5768 11.6672 40.6376C11.8017 40.6985 11.9395 40.7468 12.0832 40.7813C12.2268 40.8146 12.3716 40.8353 12.5186 40.841C12.6657 40.8456 12.8116 40.8376 12.9575 40.8134C13.1035 40.7905 13.2448 40.7537 13.3827 40.702C13.5205 40.6503 13.6527 40.5871 13.7779 40.509C13.9031 40.432 14.0203 40.3435 14.1283 40.2435C14.2363 40.1436 14.3329 40.0333 14.419 39.9138C14.5064 39.7954 14.5799 39.6679 14.6408 39.5346L15.5761 37.4963L19.6538 39.3669C19.8916 39.4772 20.134 39.576 20.3811 39.6645C20.627 39.7529 20.8774 39.8311 21.1314 39.8977C21.3853 39.9643 21.6415 40.0195 21.9 40.0643C22.1585 40.108 22.4182 40.1413 22.679 40.162C22.941 40.1838 23.203 40.193 23.4649 40.1918C23.7269 40.1895 23.9889 40.1769 24.2497 40.1516C24.5105 40.1275 24.7702 40.0907 25.0287 40.0436C25.2861 39.9954 25.5411 39.9368 25.7939 39.8667C26.0467 39.7966 26.296 39.7162 26.5419 39.6243C26.7878 39.5323 27.0279 39.4301 27.2646 39.3163C27.5013 39.2037 27.7322 39.0808 27.9586 38.9475C28.1838 38.8131 28.4032 38.6706 28.6169 38.5178C28.8307 38.365 29.0363 38.203 29.2351 38.0329C29.4339 37.8617 29.6257 37.6825 29.8084 37.4952C29.9911 37.3068 30.1658 37.1114 30.3324 36.9092C30.4978 36.7059 30.6552 36.4956 30.8023 36.2796C30.9505 36.0624 31.0884 35.8395 31.2159 35.6109C31.3435 35.3822 31.4618 35.1478 31.5687 34.9089C31.6767 34.6687 31.7732 34.4263 31.8594 34.1781C31.9455 33.9299 32.0202 33.6794 32.0846 33.4244C32.1478 33.1704 32.2006 32.9142 32.242 32.6546C32.2833 32.396 32.3132 32.1352 32.3316 31.8744C32.35 31.6124 32.3569 31.3505 32.3523 31.0885C32.3477 30.8265 32.3316 30.5646 32.304 30.3038C32.2776 30.0429 32.2385 29.7844 32.188 29.527C32.1374 29.2697 32.0765 29.0146 32.003 28.763C31.9306 28.5102 31.8467 28.262 31.7525 28.0173C31.6583 27.7737 31.5526 27.5336 31.4377 27.298C31.3216 27.0625 31.1952 26.8327 31.0597 26.6086C30.9241 26.3846 30.7782 26.1663 30.6231 25.9549C30.4691 25.7435 30.3048 25.5389 30.1313 25.3413C29.959 25.1448 29.7774 24.9553 29.5878 24.7737ZM18.6461 9.29355L26.8004 13.0346C27.0681 13.1576 27.3209 13.3046 27.5599 13.4781C27.7977 13.6505 28.0172 13.8447 28.2183 14.0607C28.4182 14.2767 28.5951 14.5099 28.7502 14.7604C28.9042 15.012 29.0329 15.2751 29.1351 15.5509C29.2374 15.8278 29.3121 16.1104 29.3592 16.4023C29.4051 16.693 29.4235 16.9848 29.412 17.2789C29.4005 17.5742 29.3615 17.8638 29.2937 18.151C29.2248 18.4371 29.1294 18.714 29.0064 18.9817C28.8835 19.2494 28.7364 19.5034 28.5629 19.7412C28.3906 19.9802 28.1964 20.1996 27.9804 20.3996C27.7644 20.6006 27.5312 20.7776 27.2807 20.9315C27.0291 21.0867 26.7659 21.2142 26.4902 21.3165C26.2133 21.4199 25.9306 21.4934 25.6388 21.5405C25.3481 21.5876 25.0563 21.6048 24.761 21.5934C24.4668 21.583 24.1773 21.5428 23.8901 21.475C23.604 21.4072 23.3271 21.3107 23.0593 21.1889L14.9051 17.4467L18.6461 9.29355ZM21.5243 35.2903L9.29345 29.6776L13.0345 21.5244L25.2654 27.136C25.5331 27.259 25.7859 27.406 26.0249 27.5795C26.2638 27.7519 26.4833 27.9461 26.6832 28.1621C26.8831 28.3781 27.0612 28.6113 27.2152 28.8618C27.3692 29.1134 27.4978 29.3765 27.6001 29.6523C27.7024 29.9292 27.777 30.2118 27.8242 30.5037C27.8701 30.7944 27.8885 31.0862 27.877 31.3803C27.8655 31.6756 27.8264 31.9652 27.7587 32.2524C27.6897 32.5385 27.5944 32.8154 27.4714 33.0831C27.3485 33.3508 27.2014 33.6048 27.0279 33.8426C26.8556 34.0816 26.6614 34.301 26.4454 34.501C26.2294 34.702 25.9961 34.879 25.7457 35.0329C25.494 35.1881 25.2309 35.3156 24.9552 35.4178C24.6783 35.5213 24.3956 35.5948 24.1038 35.6419C23.8131 35.689 23.5212 35.7062 23.2271 35.6948C22.9318 35.6844 22.6423 35.6442 22.355 35.5764C22.0689 35.5086 21.792 35.4121 21.5243 35.2903Z" fill="#ECAC09"/>
</svg>
