<svg width="30" height="30" viewBox="0 0 30 30" fill="none" xmlns="http://www.w3.org/2000/svg">
<path d="M26.4201 10.3383H24.1227V5.7435C24.1227 4.98926 23.9742 4.24239 23.6855 3.54556C23.3969 2.84873 22.9738 2.21557 22.4405 1.68223C21.9072 1.1489 21.274 0.725836 20.5772 0.437198C19.8803 0.14856 19.1335 0 18.3792 0H5.7435C4.22023 0 2.75935 0.605117 1.68223 1.68223C0.605117 2.75935 0 4.22023 0 5.7435V19.5279C0 19.8326 0.121023 20.1247 0.336447 20.3402C0.55187 20.5556 0.844046 20.6766 1.1487 20.6766C1.45336 20.6766 1.74553 20.5556 1.96095 20.3402C2.17638 20.1247 2.2974 19.8326 2.2974 19.5279V5.7435C2.2974 4.82954 2.66047 3.95301 3.30674 3.30674C3.95301 2.66047 4.82954 2.2974 5.7435 2.2974H18.3792C19.2932 2.2974 20.1697 2.66047 20.816 3.30674C21.4622 3.95301 21.8253 4.82954 21.8253 5.7435V11.487C21.8253 11.7917 21.9463 12.0838 22.1618 12.2993C22.3772 12.5147 22.6694 12.6357 22.974 12.6357H26.4201C26.7248 12.6357 27.017 12.7567 27.2324 12.9722C27.4478 13.1876 27.5688 13.4798 27.5688 13.7844V24.1227C27.5688 25.0367 27.2057 25.9132 26.5595 26.5595C25.9132 27.2057 25.0367 27.5688 24.1227 27.5688H5.7435C4.82954 27.5688 3.95301 27.2057 3.30674 26.5595C2.66047 25.9132 2.2974 25.0367 2.2974 24.1227C2.2974 23.8181 2.17638 23.5259 1.96095 23.3105C1.74553 23.095 1.45336 22.974 1.1487 22.974C0.844046 22.974 0.55187 23.095 0.336447 23.3105C0.121023 23.5259 0 23.8181 0 24.1227C0 25.646 0.605117 27.1069 1.68223 28.184C2.75935 29.2611 4.22023 29.8662 5.7435 29.8662H24.1227C25.646 29.8662 27.1069 29.2611 28.184 28.184C29.2611 27.1069 29.8662 25.646 29.8662 24.1227V13.7844C29.8662 12.8704 29.5032 11.9939 28.8569 11.3476C28.2106 10.7014 27.3341 10.3383 26.4201 10.3383Z" fill="white"/>
<path d="M9.76384 12.6357H14.3586C15.1203 12.6357 15.8507 12.3332 16.3893 11.7946C16.9278 11.256 17.2304 10.5256 17.2304 9.76396C17.2304 9.00233 16.9278 8.27189 16.3893 7.73333C15.8507 7.19477 15.1203 6.89221 14.3586 6.89221H9.76384C9.00221 6.89221 8.27176 7.19477 7.73321 7.73333C7.19465 8.27189 6.89209 9.00233 6.89209 9.76396C6.89209 10.5256 7.19465 11.256 7.73321 11.7946C8.27176 12.3332 9.00221 12.6357 9.76384 12.6357ZM9.76384 9.18961H14.3586C14.511 9.18961 14.6571 9.25012 14.7648 9.35784C14.8725 9.46555 14.933 9.61164 14.933 9.76396C14.933 9.91629 14.8725 10.0624 14.7648 10.1701C14.6571 10.2778 14.511 10.3383 14.3586 10.3383H9.76384C9.61151 10.3383 9.46543 10.2778 9.35771 10.1701C9.25 10.0624 9.18949 9.91629 9.18949 9.76396C9.18949 9.61164 9.25 9.46555 9.35771 9.35784C9.46543 9.25012 9.61151 9.18961 9.76384 9.18961ZM9.76384 22.974H20.1021C20.8638 22.974 21.5942 22.6715 22.1328 22.1329C22.6713 21.5943 22.9739 20.8639 22.9739 20.1023C22.9739 19.3406 22.6713 18.6102 22.1328 18.0716C21.5942 17.5331 20.8638 17.2305 20.1021 17.2305H9.76384C9.00221 17.2305 8.27176 17.5331 7.73321 18.0716C7.19465 18.6102 6.89209 19.3406 6.89209 20.1023C6.89209 20.8639 7.19465 21.5943 7.73321 22.1329C8.27176 22.6715 9.00221 22.974 9.76384 22.974ZM9.76384 19.5279H20.1021C20.2545 19.5279 20.4006 19.5884 20.5083 19.6961C20.616 19.8039 20.6765 19.9499 20.6765 20.1023C20.6765 20.2546 20.616 20.4007 20.5083 20.5084C20.4006 20.6161 20.2545 20.6766 20.1021 20.6766H9.76384C9.61151 20.6766 9.46543 20.6161 9.35771 20.5084C9.25 20.4007 9.18949 20.2546 9.18949 20.1023C9.18949 19.9499 9.25 19.8039 9.35771 19.6961C9.46543 19.5884 9.61151 19.5279 9.76384 19.5279Z" fill="white"/>
</svg>
