<svg width="30" height="23" viewBox="0 0 30 23" fill="none" xmlns="http://www.w3.org/2000/svg">
<path fill-rule="evenodd" clip-rule="evenodd" d="M10.659 6.21371C10.659 6.7336 10.236 7.15556 9.71487 7.15556C9.1937 7.15556 8.77074 6.7336 8.77074 6.21371C8.77074 2.78663 11.5654 0 15.0007 0C18.4347 0 21.2294 2.78663 21.2294 6.21371C21.2294 9.64079 18.4347 12.4274 15.0007 12.4274C13.5947 12.4274 12.269 11.9766 11.1688 11.1227C10.7572 10.8036 10.6829 10.2121 11.0026 9.80152C11.3211 9.38968 11.9166 9.31676 12.3282 9.637C13.0935 10.2297 14.0175 10.5437 15.0007 10.5437C17.395 10.5437 19.3412 8.60099 19.3412 6.21371C19.3412 3.82643 17.395 1.8837 15.0007 1.8837C12.6064 1.8837 10.659 3.82643 10.659 6.21371ZM8.21005 10.127C8.21005 10.647 7.78708 11.0688 7.26593 11.0688C4.5481 11.0688 2.33633 8.86366 2.33633 6.15242C2.33633 3.44115 4.5481 1.23471 7.26593 1.23471C7.78708 1.23471 8.21005 1.65665 8.21005 2.17656C8.21005 2.69645 7.78708 3.11841 7.26593 3.11841C5.58916 3.11841 4.22459 4.4797 4.22459 6.15242C4.22459 7.82515 5.58916 9.18512 7.26593 9.18512C7.78708 9.18512 8.21005 9.6071 8.21005 10.127ZM5.49701 15.3856C4.89025 15.4258 4.28098 15.515 3.68554 15.6481C2.77163 15.8278 2.14348 16.1341 1.98109 16.4733C1.85898 16.7306 1.85898 17.0283 1.98109 17.2857C2.05913 17.4477 2.37637 17.8508 3.66918 18.1157C4.18027 18.2201 4.50883 18.7174 4.40435 19.2272C4.3137 19.673 3.9197 19.9794 3.48036 19.9794C3.41743 19.9794 3.35448 19.9732 3.29028 19.9606C1.72807 19.6416 0.71471 19.0137 0.276628 18.0945C-0.0922092 17.3221 -0.0922092 16.4367 0.276628 15.6645C0.719742 14.7365 1.73561 14.1098 3.29657 13.8034C3.9625 13.6552 4.6687 13.5535 5.36987 13.5071C5.87341 13.4681 6.34044 13.8637 6.37568 14.3823C6.41093 14.9022 6.01817 15.3518 5.49701 15.3856ZM22.75 9.21583C22.2288 9.21583 21.8058 9.63781 21.8058 10.1576C21.8058 10.6775 22.2288 11.0995 22.75 11.0995C25.4614 11.0995 27.6682 8.89816 27.6682 6.19312C27.6682 3.48685 25.4614 1.28669 22.75 1.28669C22.2288 1.28669 21.8058 1.70738 21.8058 2.22855C21.8058 2.74845 22.2288 3.1704 22.75 3.1704C24.4204 3.1704 25.78 4.52666 25.78 6.19312C25.78 7.85956 24.4204 9.21583 22.75 9.21583ZM26.7311 13.8265C28.2682 14.1304 29.2815 14.7545 29.7234 15.6776C30.0922 16.4499 30.0922 17.3339 29.7234 18.1063C29.2866 19.0218 28.2757 19.6484 26.716 19.9686C26.6531 19.9824 26.5889 19.9888 26.5247 19.9888C26.0867 19.9888 25.6939 19.6811 25.602 19.2365C25.4974 18.7266 25.8261 18.228 26.3372 18.1239C27.625 17.8588 27.9422 17.457 28.0189 17.2963C28.141 17.0402 28.141 16.7449 28.0189 16.4888C27.8578 16.151 27.2321 15.8458 26.3434 15.67C25.7253 15.5343 25.116 15.4452 24.5144 15.405C23.9932 15.3712 23.6005 14.9202 23.6357 14.4017C23.6696 13.8831 24.1241 13.4987 24.6403 13.5263C25.3388 13.5728 26.0413 13.6746 26.7311 13.8265ZM15.0003 14.3764C12.7268 14.3764 5.80959 14.3764 5.80959 18.7001C5.80959 19.676 6.19479 21.0271 8.03016 21.9251C8.59412 22.1988 9.27641 22.4223 10.0594 22.5894C10.5667 22.7024 11.0702 22.3733 11.1785 21.8647C11.288 21.3562 10.962 20.855 10.4522 20.7471C9.82023 20.6127 9.28396 20.4394 8.861 20.2322C7.83001 19.7286 7.69783 19.1497 7.69783 18.7001C7.69783 16.6833 11.6695 16.2601 15.0003 16.2601C19.8468 16.2601 22.3028 17.0726 22.3028 18.6775C22.3028 20.6931 18.3312 21.1163 15.0003 21.1163C14.4791 21.1163 14.0562 21.5383 14.0562 22.0581C14.0562 22.578 14.4791 23 15.0003 23C17.2737 23 24.1911 23 24.1911 18.6775C24.1911 14.3764 17.5143 14.3764 15.0003 14.3764Z" fill="white"/>
</svg>
