<svg width="31" height="30" viewBox="0 0 31 30" fill="none" xmlns="http://www.w3.org/2000/svg">
<path fill-rule="evenodd" clip-rule="evenodd" d="M26.9725 7.77786C28.6026 7.77785 30.072 6.82892 30.6947 5.37413C31.3172 3.91932 30.9701 2.24562 29.8154 1.13445C28.6608 0.0232974 26.9263 -0.306148 25.4217 0.299942C23.9173 0.906047 22.9396 2.32812 22.9451 3.90222C22.9527 6.04481 24.7535 7.77788 26.9725 7.77786ZM26.9725 2.22233C27.9333 2.22233 28.7122 2.97444 28.7122 3.90222C28.7122 4.82999 27.9333 5.5821 26.9725 5.5821C26.0117 5.5821 25.2328 4.82999 25.2328 3.90222C25.2328 2.97444 26.0117 2.22233 26.9725 2.22233ZM2.28766 20.9921C2.28766 25.3836 4.79451 27.791 9.32874 27.791C9.96116 27.7982 10.472 28.2915 10.4794 28.9022C10.4719 29.5106 9.95894 30 9.32874 30C3.57534 30 0 26.5476 0 20.9921V10.1853C0 4.61649 3.57534 1.16414 9.32874 1.16414H19.411C20.041 1.17138 20.5479 1.66671 20.5479 2.27523C20.5479 2.56872 20.4262 2.84999 20.21 3.05627C19.9939 3.26255 19.7011 3.37665 19.3972 3.37311H9.32874C4.79451 3.37311 2.28766 5.79374 2.28766 10.1853V20.9921ZM18.3973 18.1085C18.2054 18.3372 17.9317 18.4883 17.63 18.5318C17.3299 18.5613 17.0299 18.4758 16.7944 18.2937L12.589 15.1059L8.80819 19.8546C8.62791 20.0915 8.3568 20.2485 8.05556 20.2908C7.75431 20.3331 7.4481 20.2569 7.20546 20.0795C6.7103 19.7046 6.61875 19.0152 6.99999 18.5318L11.4794 12.8969C11.6663 12.6633 11.9418 12.5111 12.245 12.4739C12.5483 12.4367 12.8545 12.5175 13.0958 12.6986L17.3013 15.8864L20.9999 11.3228C21.406 10.9501 22.0326 10.9184 22.4766 11.2483C22.9206 11.5781 23.0498 12.171 22.7808 12.6456L18.3973 18.1085ZM28.7671 10.1853C28.1392 10.1853 27.63 10.6768 27.63 11.2831V20.9921C27.5889 25.3836 25.0821 27.791 20.5479 27.791H15.9726C15.3402 27.7982 14.8293 28.2915 14.8219 28.9022C14.8293 29.5106 15.3424 30 15.9726 30H20.5479C26.3013 30 29.8904 26.5476 29.8904 20.9921V11.2831C29.8904 10.6819 29.3896 10.1925 28.7671 10.1853Z" fill="white"/>
</svg>
