<svg width="38" height="40" viewBox="0 0 38 40" fill="none" xmlns="http://www.w3.org/2000/svg">
<path d="M16.2742 36.6775H8.27909C5.68844 36.668 3.58797 34.5753 3.56894 31.9847V16.0815C3.57403 15.2142 3.96209 14.3936 4.62916 13.8394L6.03699 12.7965C6.55095 12.2489 6.60322 11.4133 6.16149 10.806C5.71976 10.1986 4.90872 9.99085 4.2294 10.3111L2.78681 11.3887C1.33163 12.5146 0.468083 14.2417 0.44043 16.0815V32.0021C0.449988 36.3273 3.95388 39.8312 8.27909 39.8408H16.2742C17.1381 39.8408 17.8384 39.1404 17.8384 38.2765C17.8384 37.4126 17.1381 36.7122 16.2742 36.7122V36.6775Z" fill="white"/>
<path d="M37.9999 16.0467C37.9816 14.2205 37.1461 12.4985 35.723 11.3539L23.713 1.77722C21.0738 -0.344196 17.3143 -0.344196 14.6751 1.77722L10.8687 4.54073C10.1536 5.05428 9.99021 6.05032 10.5038 6.76545C11.0173 7.48058 12.0133 7.64399 12.7285 7.13045L16.587 4.24526C18.1014 2.99844 20.2867 2.99844 21.8012 4.24526L33.8112 13.822C34.5024 14.3699 34.9108 15.1995 34.9235 16.0815V32.0021C34.9235 34.5939 32.8225 36.6949 30.2308 36.6949H26.6677C26.303 36.6949 26.0073 36.3992 26.0073 36.0344V28.8562C26.0073 26.5688 24.1581 24.7118 21.8707 24.7022H16.6565C15.5548 24.7022 14.4982 25.1399 13.7192 25.9189C12.9402 26.6979 12.5025 27.7545 12.5025 28.8562V31.6024C12.5025 32.4663 13.2029 33.1666 14.0668 33.1666C14.9307 33.1666 15.631 32.4663 15.631 31.6024V28.8562C15.6264 28.5859 15.7305 28.325 15.9201 28.1321C16.1096 27.9393 16.3687 27.8307 16.6391 27.8308H21.8533C22.41 27.8308 22.8614 28.2821 22.8614 28.8388V36.0344C22.8709 38.1298 24.5723 39.8234 26.6677 39.8234H30.1438C34.473 39.8234 37.9825 36.3139 37.9825 31.9847L37.9999 16.0467Z" fill="white"/>
</svg>
