<svg width="30" height="36" viewBox="0 0 30 36" fill="none" xmlns="http://www.w3.org/2000/svg">
<path fill-rule="evenodd" clip-rule="evenodd" d="M14.9999 0H15.0588C23.3289 0.033156 30.0324 6.91555 29.9999 15.3401V15.5075C29.8882 21.528 26.3397 26.5241 23.3831 29.6543C22.5417 30.5492 21.6461 31.408 20.7225 32.2099C20.1692 32.6914 19.3387 32.6252 18.8662 32.0616C18.3936 31.4964 18.4601 30.6504 19.0133 30.1689C19.8687 29.4255 20.7007 28.6267 21.4834 27.7949C24.1146 25.0103 27.2695 20.6077 27.3655 15.4586C27.3918 8.38516 21.8676 2.71033 15.048 2.68193H14.9999C8.20346 2.68193 2.66062 8.30149 2.63429 15.2296C2.75049 18.652 3.8848 21.9053 5.91629 24.6346C8.28715 27.8548 11.8837 31.2644 15.3021 33.5344C15.9126 33.9385 16.0846 34.7688 15.6863 35.3907C15.4354 35.7853 15.0124 36 14.5814 36C14.3351 36 14.0871 35.9305 13.8641 35.7822C10.204 33.3527 6.35172 29.7 3.81197 26.251C1.45506 23.0828 0.136359 19.3023 0 15.3229C0.0325412 6.81453 6.75615 0 14.9999 0ZM11.921 15.5054C11.921 17.2309 13.3001 18.6372 14.9953 18.6372C16.6904 18.6372 18.0696 17.2309 18.0696 15.5054C18.0696 13.7785 16.6904 12.3721 14.9953 12.3721C14.2686 12.3721 13.6781 11.7722 13.6781 11.0319C13.6781 10.29 14.2686 9.69014 14.9953 9.69014C18.1424 9.69014 20.7039 12.2979 20.7039 15.5054C20.7039 18.7114 18.1424 21.3192 14.9953 21.3192C11.8481 21.3192 9.28662 18.7114 9.28662 15.5054C9.28662 14.7636 9.87701 14.1637 10.6038 14.1637C11.3305 14.1637 11.921 14.7636 11.921 15.5054Z" fill="white"/>
</svg>
